<svg width="11" height="12" viewBox="0 0 11 12" fill="none" xmlns="http://www.w3.org/2000/svg">
<path d="M9.82143 0H1.17857C0.55 0 0 0.525 0 1.125V10.875C0 11.475 0.55 12 1.17857 12H9.82143C10.45 12 11 11.475 11 10.875V1.125C11 0.525 10.45 0 9.82143 0ZM3.14286 10.2C3.14286 10.35 2.98571 10.5 2.82857 10.5H1.88571C1.72857 10.5 1.57143 10.35 1.57143 10.2V9.3C1.57143 9.15 1.72857 9 1.88571 9H2.82857C2.98571 9 3.14286 9.15 3.14286 9.3V10.2ZM3.14286 7.2C3.14286 7.35 2.98571 7.5 2.82857 7.5H1.88571C1.72857 7.5 1.57143 7.35 1.57143 7.2V6.3C1.57143 6.15 1.72857 6 1.88571 6H2.82857C2.98571 6 3.14286 6.15 3.14286 6.3V7.2ZM6.28571 10.2C6.28571 10.35 6.12857 10.5 5.97143 10.5H5.02857C4.87143 10.5 4.71429 10.35 4.71429 10.2V9.3C4.71429 9.15 4.87143 9 5.02857 9H5.97143C6.12857 9 6.28571 9.15 6.28571 9.3V10.2ZM6.28571 7.2C6.28571 7.35 6.12857 7.5 5.97143 7.5H5.02857C4.87143 7.5 4.71429 7.35 4.71429 7.2V6.3C4.71429 6.15 4.87143 6 5.02857 6H5.97143C6.12857 6 6.28571 6.15 6.28571 6.3V7.2ZM9.42857 10.2C9.42857 10.35 9.27143 10.5 9.11429 10.5H8.17143C8.01429 10.5 7.85714 10.35 7.85714 10.2V6.3C7.85714 6.15 8.01429 6 8.17143 6H9.11429C9.27143 6 9.42857 6.15 9.42857 6.3V10.2ZM9.42857 4.2C9.42857 4.35 9.27143 4.5 9.11429 4.5H1.88571C1.72857 4.5 1.57143 4.35 1.57143 4.2V1.8C1.57143 1.65 1.72857 1.5 1.88571 1.5H9.11429C9.27143 1.5 9.42857 1.65 9.42857 1.8V4.2Z" fill="#6E8D9F"/>
</svg>
