<svg width="12" height="12" viewBox="0 0 12 12" fill="none" xmlns="http://www.w3.org/2000/svg">
<path d="M11.6786 11.25H11.1429V0.5625C11.1429 0.251836 10.855 0 10.5 0H1.5C1.14496 0 0.857143 0.251836 0.857143 0.5625V11.25H0.321429C0.14392 11.25 0 11.3759 0 11.5312V12H12V11.5312C12 11.3759 11.8561 11.25 11.6786 11.25ZM3.42857 1.78125C3.42857 1.62593 3.57249 1.5 3.75 1.5H4.82143C4.99894 1.5 5.14286 1.62593 5.14286 1.78125V2.71875C5.14286 2.87407 4.99894 3 4.82143 3H3.75C3.57249 3 3.42857 2.87407 3.42857 2.71875V1.78125ZM3.42857 4.03125C3.42857 3.87593 3.57249 3.75 3.75 3.75H4.82143C4.99894 3.75 5.14286 3.87593 5.14286 4.03125V4.96875C5.14286 5.12407 4.99894 5.25 4.82143 5.25H3.75C3.57249 5.25 3.42857 5.12407 3.42857 4.96875V4.03125ZM4.82143 7.5H3.75C3.57249 7.5 3.42857 7.37407 3.42857 7.21875V6.28125C3.42857 6.12593 3.57249 6 3.75 6H4.82143C4.99894 6 5.14286 6.12593 5.14286 6.28125V7.21875C5.14286 7.37407 4.99894 7.5 4.82143 7.5ZM6.85714 11.25H5.14286V9.28125C5.14286 9.12593 5.28678 9 5.46429 9H6.53571C6.71322 9 6.85714 9.12593 6.85714 9.28125V11.25ZM8.57143 7.21875C8.57143 7.37407 8.42751 7.5 8.25 7.5H7.17857C7.00106 7.5 6.85714 7.37407 6.85714 7.21875V6.28125C6.85714 6.12593 7.00106 6 7.17857 6H8.25C8.42751 6 8.57143 6.12593 8.57143 6.28125V7.21875ZM8.57143 4.96875C8.57143 5.12407 8.42751 5.25 8.25 5.25H7.17857C7.00106 5.25 6.85714 5.12407 6.85714 4.96875V4.03125C6.85714 3.87593 7.00106 3.75 7.17857 3.75H8.25C8.42751 3.75 8.57143 3.87593 8.57143 4.03125V4.96875ZM8.57143 2.71875C8.57143 2.87407 8.42751 3 8.25 3H7.17857C7.00106 3 6.85714 2.87407 6.85714 2.71875V1.78125C6.85714 1.62593 7.00106 1.5 7.17857 1.5H8.25C8.42751 1.5 8.57143 1.62593 8.57143 1.78125V2.71875Z" fill="#6E8D9F"/>
</svg>
