<svg width="12" height="12" viewBox="0 0 12 12" fill="none" xmlns="http://www.w3.org/2000/svg">
<path d="M3.2721 0.0980339C3.24597 0.0669605 3.21492 0.0423055 3.18074 0.0254826C3.14655 0.00865974 3.1099 0 3.07288 0C3.03587 0 2.99921 0.00865974 2.96503 0.0254826C2.93084 0.0423055 2.89979 0.0669605 2.87366 0.0980339L1.38116 1.85653L0.849129 1.24212C0.823 1.21105 0.791952 1.18639 0.757765 1.16957C0.723579 1.15275 0.686926 1.14409 0.64991 1.14409C0.612893 1.14409 0.576241 1.15275 0.542055 1.16957C0.507868 1.18639 0.47682 1.21105 0.450691 1.24212L0.0827219 1.67876C0.0565019 1.70973 0.0356977 1.74652 0.0215024 1.78703C0.00730715 1.82755 0 1.87099 0 1.91485C0 1.95872 0.00730715 2.00216 0.0215024 2.04267C0.0356977 2.08319 0.0565019 2.11998 0.0827219 2.15095L1.19811 3.46753C1.25379 3.53025 1.32767 3.56522 1.40448 3.56522C1.4813 3.56522 1.55517 3.53025 1.61085 3.46753L1.97624 3.03367L3.66843 1.02853C3.72115 0.965993 3.75094 0.881344 3.75134 0.792945C3.75173 0.704546 3.7227 0.619527 3.67054 0.556336L3.2721 0.0980339ZM3.2721 4.51968C3.24597 4.4886 3.21492 4.46395 3.18074 4.44713C3.14655 4.4303 3.1099 4.42164 3.07288 4.42164C3.03587 4.42164 2.99921 4.4303 2.96503 4.44713C2.93084 4.46395 2.89979 4.4886 2.87366 4.51968L1.38116 6.28956L0.849129 5.67571C0.823 5.64464 0.791952 5.61998 0.757765 5.60316C0.723579 5.58633 0.686926 5.57768 0.64991 5.57768C0.612893 5.57768 0.576241 5.58633 0.542055 5.60316C0.507868 5.61998 0.47682 5.64464 0.450691 5.67571L0.0827219 6.11151C0.0565019 6.14248 0.0356977 6.17927 0.0215024 6.21979C0.00730715 6.2603 0 6.30374 0 6.34761C0 6.39148 0.00730715 6.43491 0.0215024 6.47543C0.0356977 6.51594 0.0565019 6.55274 0.0827219 6.5837L1.1953 7.90306C1.25094 7.96576 1.32478 8.00072 1.40155 8.00072C1.47833 8.00072 1.55217 7.96576 1.6078 7.90306L1.97577 7.46725L3.66796 5.46128C3.72048 5.39918 3.75017 5.31501 3.75057 5.22709C3.75096 5.13917 3.72203 5.05462 3.67007 4.99187L3.2721 4.51968ZM1.49999 9.33352C0.879129 9.33352 0.36116 9.9307 0.36116 10.6668C0.36116 11.4028 0.879598 12 1.49999 12C1.79836 12 2.08451 11.8595 2.29549 11.6095C2.50646 11.3595 2.62499 11.0204 2.62499 10.6668C2.62499 10.3132 2.50646 9.97404 2.29549 9.72401C2.08451 9.47398 1.79836 9.33352 1.49999 9.33352ZM11.625 9.77793H4.87499C4.77554 9.77793 4.68015 9.82475 4.60983 9.90809C4.5395 9.99144 4.49999 10.1045 4.49999 10.2223V11.1112C4.49999 11.229 4.5395 11.3421 4.60983 11.4254C4.68015 11.5088 4.77554 11.5556 4.87499 11.5556H11.625C11.7245 11.5556 11.8198 11.5088 11.8902 11.4254C11.9605 11.3421 12 11.229 12 11.1112V10.2223C12 10.1045 11.9605 9.99144 11.8902 9.90809C11.8198 9.82475 11.7245 9.77793 11.625 9.77793ZM11.625 0.889647H4.87499C4.77554 0.889647 4.68015 0.936469 4.60983 1.01981C4.5395 1.10316 4.49999 1.21619 4.49999 1.33406V2.22289C4.49999 2.34075 4.5395 2.45379 4.60983 2.53714C4.68015 2.62048 4.77554 2.6673 4.87499 2.6673H11.625C11.7245 2.6673 11.8198 2.62048 11.8902 2.53714C11.9605 2.45379 12 2.34075 12 2.22289V1.33406C12 1.21619 11.9605 1.10316 11.8902 1.01981C11.8198 0.936469 11.7245 0.889647 11.625 0.889647ZM11.625 5.33379H4.87499C4.77554 5.33379 4.68015 5.38061 4.60983 5.46395C4.5395 5.5473 4.49999 5.66034 4.49999 5.7782V6.66703C4.49999 6.7849 4.5395 6.89794 4.60983 6.98128C4.68015 7.06462 4.77554 7.11144 4.87499 7.11144H11.625C11.7245 7.11144 11.8198 7.06462 11.8902 6.98128C11.9605 6.89794 12 6.7849 12 6.66703V5.7782C12 5.66034 11.9605 5.5473 11.8902 5.46395C11.8198 5.38061 11.7245 5.33379 11.625 5.33379Z" fill="#6E8D9F"/>
</svg>
