<?xml version="1.0" encoding="UTF-8"?>
<svg width="491px" height="111px" viewBox="0 0 491 111" version="1.1" xmlns="http://www.w3.org/2000/svg" xmlns:xlink="http://www.w3.org/1999/xlink">
    <!-- Generator: Sketch 52.3 (67297) - http://www.bohemiancoding.com/sketch -->
    <title>Group</title>
    <desc>Created with Sketch.</desc>
    <g id="Page-1" stroke="none" stroke-width="1" fill="none" fill-rule="evenodd">
        <g id="Group">
            <polygon id="Path" fill="#142344" points="281 23.1 290.2 68.7 300 23.1 320.5 23.1 329.4 69.1 339.6 23.1 359.5 23.1 340 88.3 319.1 88.3 309.5 44.9 299.8 88.3 278.7 88.3 260.8 23.1"></polygon>
            <path d="M22.4,16.4 L22.4,43.1 L35.6,43.1 C43.8,43.1 53.8,42.8 53.8,29.2 C53.8,16.3 42.7,16.3 36.3,16.3 L22.4,16.3 L22.4,16.4 Z M0.2,0.1 L35.7,0.1 C50.2,0.1 63.1,0.1 70.8,11.2 C74.2,16.2 75.8,23.3 75.8,29.3 C75.8,34.2 74.8,38.9 72.8,43 C65.2,58.8 49,59.2 37,59.5 L22.4,59.5 L22.4,88.4 L0.2,88.4 L0.2,0.1 Z" id="Shape" fill="#142344" fill-rule="nonzero"></path>
            <path d="M108,61.2 C104.8,62.4 99.8,64.3 99.8,69.3 C99.8,72.4 102.6,75.9 107,75.9 C109.4,75.9 111.6,75 113.6,73.8 C120,69.8 120.2,63.8 120.3,57.1 L108,61.2 Z M83.7,41.6 C84.1,37.1 84.7,31.7 90.6,27.1 C96.6,22.3 104.3,21.4 112,21.4 C120,21.4 139.4,23.3 139.4,40.1 L139.4,78.1 C139.4,85.1 139.8,86.1 141.3,88.3 L122.4,88.3 L122.4,82.3 C117.5,85.9 112,90 102.4,90 C87.4,90 81,79.3 81,70.1 C81,59.6 89.4,53.6 94.7,51.4 C99.9,49.2 112.3,46.9 120.4,45.4 L120.4,42 C120.2,39 119.9,34 113,34 C104.5,34 103.4,39.2 102.9,41.6 L83.7,41.6 Z" id="Shape" fill="#142344" fill-rule="nonzero"></path>
            <path d="M156.8,4.3 L175.9,4.3 L175.9,24.7 L188.5,24.7 L188.5,36.4 L175.8,36.4 L175.8,65.8 C175.7,69.8 175.7,73.2 180.8,73.2 L187.7,73 L187.7,88 C183.6,88.6 181.1,89 177.6,89 C171,89 163.7,88.6 159.6,82.6 C157,78.7 156.8,74.1 156.8,67.9 L156.8,36.2 L147.3,36.2 L147.3,24.5 L156.8,24.5 L156.8,4.3 Z" id="Path" fill="#142344"></path>
            <path d="M215.5,0 L215.5,30 C218.2,27.2 223.9,21.4 234.2,21.4 C238.9,21.4 244.2,22.8 248.1,26 C253.8,30.9 254.8,37 254.8,45.5 L254.8,88.3 L235.7,88.3 L235.7,54.2 C235.7,49 235.6,46.5 234.8,44.2 C232.9,38.3 227.8,37.7 225.8,37.7 C222.4,37.7 219.6,39.3 217.9,41.4 C215.4,44.8 215.4,50.1 215.4,55.8 L215.4,88.3 L196.2,88.3 L196.2,0 L215.5,0 Z" id="Path" fill="#142344"></path>
            <path d="M390,61.2 C386.8,62.4 381.8,64.3 381.8,69.3 C381.8,72.4 384.6,75.9 389,75.9 C391.4,75.9 393.6,75 395.6,73.8 C402,69.8 402.2,63.8 402.3,57.1 L390,61.2 Z M365.6,41.6 C366,37.1 366.6,31.7 372.5,27.1 C378.5,22.3 386.2,21.4 393.9,21.4 C401.9,21.4 421.3,23.3 421.3,40.1 L421.3,78.1 C421.3,85.1 421.7,86.1 423.2,88.3 L404.3,88.3 L404.3,82.3 C399.4,85.9 393.9,90 384.3,90 C369.3,90 362.9,79.3 362.9,70.1 C362.9,59.6 371.3,53.6 376.6,51.4 C381.8,49.2 394.2,46.9 402.3,45.4 L402.3,42 C402.1,39 401.8,34 394.9,34 C386.4,34 385.3,39.2 384.8,41.6 L365.6,41.6 Z" id="Shape" fill="#142344" fill-rule="nonzero"></path>
            <path d="M490.2,23.1 L467.2,93.5 C465.7,97.7 464.3,101.7 461.1,105.4 C456.6,110.3 452.2,110.5 447.2,110.6 L433.3,110.6 L433.3,95.4 L440,95.4 C443.1,95.3 448,95.3 448,90.7 C448,89.1 447.5,87.5 447.1,86.1 L427.6,23.1 L448.1,23.1 L459,69.8 L469.7,23.1 L490.2,23.1 Z" id="Path" fill="#142344"></path>
            <path d="M356.8,110.7 L359.7,110.7 L359.7,100.7 L356.8,100.7 L356.8,110.7 Z M356.8,99.4 L359.7,99.4 L359.7,97.1 L356.8,97.1 L356.8,99.4 Z" id="Shape" fill="#687892" fill-rule="nonzero"></path>
            <rect id="Rectangle" fill="#687892" x="401.5" y="97.2" width="3.4" height="13.5"></rect>
            <path d="M340.6,99.7 L340.6,103.8 L342.6,103.8 C343.9,103.8 345.4,103.8 345.4,101.7 C345.4,99.7 343.7,99.7 342.7,99.7 L340.6,99.7 Z M337.2,97.2 L342.6,97.2 C344.8,97.2 346.8,97.2 348,98.9 C348.5,99.7 348.8,100.8 348.8,101.7 C348.8,102.4 348.7,103.2 348.3,103.8 C347.1,106.2 344.6,106.3 342.8,106.3 L340.6,106.3 L340.6,110.7 L337.2,110.7 L337.2,97.2 Z" id="Shape" fill="#687892" fill-rule="nonzero"></path>
            <path d="M352.8,101.7 C353.4,101.1 354.2,100.7 355.7,100.6 L355.7,103.2 L354.7,103.4 C353.3,103.6 352.9,103.9 352.9,105.1 L352.9,110.7 L350,110.7 L350,100.7 L352.9,100.7 L352.9,101.7 L352.8,101.7 Z" id="Path" fill="#687892"></path>
            <path d="M365,101.6 C365.3,101.3 365.5,101.1 366,100.8 C366.5,100.6 367.1,100.4 367.8,100.4 C368.4,100.4 369.1,100.5 369.6,100.8 C370.6,101.4 370.9,102.3 370.9,103.8 L370.9,110.6 L368,110.6 L368,105 C368,104.1 368,103.8 367.9,103.5 C367.7,103 367.2,102.7 366.6,102.7 C365.1,102.7 365.1,103.9 365.1,105.2 L365.1,110.6 L362,110.6 L362,100.6 L365,100.6 L365,101.6 Z" id="Path" fill="#687892"></path>
            <path d="M373.5,97.8 L376.4,97.8 L376.4,100.9 L378.3,100.9 L378.3,102.7 L376.4,102.7 L376.4,107.2 C376.4,107.8 376.4,108.3 377.2,108.3 L378.2,108.3 L378.2,110.6 C377.6,110.7 377.2,110.8 376.7,110.8 C375.7,110.8 374.6,110.7 373.9,109.8 C373.5,109.2 373.5,108.5 373.5,107.5 L373.5,102.7 L372,102.7 L372,100.9 L373.5,100.9 L373.5,97.8 Z" id="Path" fill="#687892"></path>
            <path d="M399.3,97.2 L399.3,110.7 L396,110.7 L396.2,101.1 L396.2,99.7 L396.1,100.2 C395.9,101 395.9,101.1 395.8,101.6 L393.3,110.7 L390.4,110.7 L388,102 L387.4,99.6 C387.5,100.7 387.5,100.9 387.5,102.2 L387.7,110.7 L384.4,110.7 L384.4,97.2 L389.3,97.2 L391.4,104.8 L391.9,107 C392.1,106.1 392.1,106 392.3,105.3 L394.5,97.2 L399.3,97.2 Z" id="Path" fill="#687892"></path>
            <path d="M408.6,106.6 C408.9,107 409.2,107.3 409.9,107.7 C410.8,108.2 411.7,108.3 412.5,108.3 C413.8,108.3 415,107.7 415,106.7 C415,105.6 413.6,105.5 412.6,105.3 C411.9,105.2 411.1,105.1 410.4,105 C409.6,104.8 406.8,104.2 406.8,101.3 C406.8,97.8 409.9,96.8 412.2,96.8 C415.3,96.8 417,98.3 418.2,99.4 L415.7,101.2 C415.3,100.8 414.9,100.4 414.4,100.1 C413.9,99.8 413.1,99.5 412.2,99.5 C410.9,99.5 410.2,100.3 410.2,100.9 C410.2,101.9 411.3,102.1 411.9,102.2 C413.3,102.4 415.3,102.7 416,103 C417.5,103.6 418.3,104.8 418.3,106.3 C418.3,107.3 417.9,108.3 417.2,109.2 C416,110.6 414,111 412.1,111 C408.3,111 406.8,109.2 405.9,108.3 L408.6,106.6 Z" id="Path" fill="#687892"></path>
        </g>
    </g>
</svg>