<?xml version="1.0" encoding="utf-8"?>
<!-- Generator: Adobe Illustrator 22.1.0, SVG Export Plug-In . SVG Version: 6.00 Build 0)  -->
<svg version="1.1" id="Layer_1" xmlns="http://www.w3.org/2000/svg" xmlns:xlink="http://www.w3.org/1999/xlink" x="0px" y="0px"
	 viewBox="0 0 502.5 125" style="enable-background:new 0 0 502.5 125;" xml:space="preserve">
<style type="text/css">
	.st0{fill:#142344;}
	.st1{clip-path:url(#SVGID_2_);fill:#142344;}
	.st2{clip-path:url(#SVGID_2_);fill:#687892;}
</style>
<polygon class="st0" points="287,30.1 296.2,75.7 306,30.1 326.5,30.1 335.4,76.1 345.6,30.1 365.5,30.1 346,95.3 325.1,95.3 
	315.5,51.9 305.8,95.3 284.7,95.3 266.8,30.1 "/>
<g>
	<defs>
		<rect id="SVGID_1_" width="502.5" height="125"/>
	</defs>
	<clipPath id="SVGID_2_">
		<use xlink:href="#SVGID_1_"  style="overflow:visible;"/>
	</clipPath>
	<path class="st1" d="M28.4,23.4v26.7h13.2c8.2,0,18.2-0.3,18.2-13.9c0-12.9-11.1-12.9-17.5-12.9H28.4z M6.2,7.1h35.5
		c14.5,0,27.4,0,35.1,11.1c3.4,5,5,12.1,5,18.1c0,4.9-1,9.6-3,13.7C71.2,65.8,55,66.2,43,66.5H28.4v28.9H6.2V7.1z"/>
	<path class="st1" d="M114,68.2c-3.2,1.2-8.2,3.1-8.2,8.1c0,3.1,2.8,6.6,7.2,6.6c2.4,0,4.6-0.9,6.6-2.1c6.4-4,6.6-10,6.7-16.7
		L114,68.2z M89.7,48.6c0.4-4.5,1-9.9,6.9-14.5c6-4.8,13.7-5.7,21.4-5.7c8,0,27.4,1.9,27.4,18.7v38c0,7,0.4,8,1.9,10.2h-18.9v-6
		c-4.9,3.6-10.4,7.7-20,7.7c-15,0-21.4-10.7-21.4-19.9c0-10.5,8.4-16.5,13.7-18.7c5.2-2.2,17.6-4.5,25.7-6V49c-0.2-3-0.5-8-7.4-8
		c-8.5,0-9.6,5.2-10.1,7.6H89.7z"/>
	<path class="st1" d="M162.8,11.3h19.1v20.4h12.6v11.7h-12.7v29.4c-0.1,4-0.1,7.4,5,7.4l6.9-0.2v15c-4.1,0.6-6.6,1-10.1,1
		c-6.6,0-13.9-0.4-18-6.4c-2.6-3.9-2.8-8.5-2.8-14.7V43.2h-9.5V31.5h9.5V11.3z"/>
	<path class="st1" d="M221.5,7v30c2.7-2.8,8.4-8.6,18.7-8.6c4.7,0,10,1.4,13.9,4.6c5.7,4.9,6.7,11,6.7,19.5v42.8h-19.1V61.2
		c0-5.2-0.1-7.7-0.9-10c-1.9-5.9-7-6.5-9-6.5c-3.4,0-6.2,1.6-7.9,3.7c-2.5,3.4-2.5,8.7-2.5,14.4v32.5h-19.2V7H221.5z"/>
	<path class="st1" d="M396,68.2c-3.2,1.2-8.2,3.1-8.2,8.1c0,3.1,2.8,6.6,7.2,6.6c2.4,0,4.6-0.9,6.6-2.1c6.4-4,6.6-10,6.7-16.7
		L396,68.2z M371.6,48.6c0.4-4.5,1-9.9,6.9-14.5c6-4.8,13.7-5.7,21.4-5.7c8,0,27.4,1.9,27.4,18.7v38c0,7,0.4,8,1.9,10.2h-18.9v-6
		c-4.9,3.6-10.4,7.7-20,7.7c-15,0-21.4-10.7-21.4-19.9c0-10.5,8.4-16.5,13.7-18.7c5.2-2.2,17.6-4.5,25.7-6V49c-0.2-3-0.5-8-7.4-8
		c-8.5,0-9.6,5.2-10.1,7.6H371.6z"/>
	<path class="st1" d="M496.2,30.1l-23,70.4c-1.5,4.2-2.9,8.2-6.1,11.9c-4.5,4.9-8.9,5.1-13.9,5.2h-13.9v-15.2h6.7
		c3.1-0.1,8-0.1,8-4.7c0-1.6-0.5-3.2-0.9-4.6l-19.5-63h20.5L465,76.8l10.7-46.7H496.2z"/>
	<path class="st2" d="M362.8,117.7h2.9v-10h-2.9V117.7z M362.8,106.4h2.9v-2.3h-2.9V106.4z"/>
	<rect x="407.5" y="104.2" class="st2" width="3.4" height="13.5"/>
	<path class="st2" d="M346.6,106.7v4.1h2c1.3,0,2.8,0,2.8-2.1c0-2-1.7-2-2.7-2H346.6z M343.2,104.2h5.4c2.2,0,4.2,0,5.4,1.7
		c0.5,0.8,0.8,1.9,0.8,2.8c0,0.7-0.1,1.5-0.5,2.1c-1.2,2.4-3.7,2.5-5.5,2.5h-2.2v4.4h-3.4V104.2z"/>
	<path class="st2" d="M358.8,108.7c0.6-0.6,1.4-1,2.9-1.1v2.6l-1,0.2c-1.4,0.2-1.8,0.5-1.8,1.7v5.6h-2.9v-10h2.9V108.7z"/>
	<path class="st2" d="M371,108.6c0.3-0.3,0.5-0.5,1-0.8c0.5-0.2,1.1-0.4,1.8-0.4c0.6,0,1.3,0.1,1.8,0.4c1,0.6,1.3,1.5,1.3,3v6.8H374
		v-5.6c0-0.9,0-1.2-0.1-1.5c-0.2-0.5-0.7-0.8-1.3-0.8c-1.5,0-1.5,1.2-1.5,2.5v5.4H368v-10h3V108.6z"/>
	<path class="st2" d="M379.5,104.8h2.9v3.1h1.9v1.8h-1.9v4.5c0,0.6,0,1.1,0.8,1.1l1,0v2.3c-0.6,0.1-1,0.2-1.5,0.2
		c-1,0-2.1-0.1-2.8-1c-0.4-0.6-0.4-1.3-0.4-2.3v-4.8h-1.5v-1.8h1.5V104.8z"/>
	<path class="st2" d="M405.3,104.2v13.5H402l0.2-9.6l0-1.4l-0.1,0.5c-0.2,0.8-0.2,0.9-0.3,1.4l-2.5,9.1h-2.9l-2.4-8.7l-0.6-2.4
		c0.1,1.1,0.1,1.3,0.1,2.6l0.2,8.5h-3.3v-13.5h4.9l2.1,7.6l0.5,2.2c0.2-0.9,0.2-1,0.4-1.7l2.2-8.1H405.3z"/>
	<path class="st2" d="M414.6,113.6c0.3,0.4,0.6,0.7,1.3,1.1c0.9,0.5,1.8,0.6,2.6,0.6c1.3,0,2.5-0.6,2.5-1.6c0-1.1-1.4-1.2-2.4-1.4
		c-0.7-0.1-1.5-0.2-2.2-0.3c-0.8-0.2-3.6-0.8-3.6-3.7c0-3.5,3.1-4.5,5.4-4.5c3.1,0,4.8,1.5,6,2.6l-2.5,1.8c-0.4-0.4-0.8-0.8-1.3-1.1
		c-0.5-0.3-1.3-0.6-2.2-0.6c-1.3,0-2,0.8-2,1.4c0,1,1.1,1.2,1.7,1.3c1.4,0.2,3.4,0.5,4.1,0.8c1.5,0.6,2.3,1.8,2.3,3.3
		c0,1-0.4,2-1.1,2.9c-1.2,1.4-3.2,1.8-5.1,1.8c-3.8,0-5.3-1.8-6.2-2.7L414.6,113.6z"/>
</g>
</svg>
